HIERARCHY
ROOT Hips
{
	OFFSET 0.000000 0.000000 0.000000
	CHANNELS 6 Xposition Yposition Zposition Xrotation Yrotation Zrotation
	JOINT LeftUpLeg_virtual
	{
		OFFSET 0.000000 0.000000 0.000000
		CHANNELS 3 Xrotation Yrotation Zrotation
		JOINT LeftUpLeg
		{
			OFFSET 15.427100 -6.655098 0.678600
			CHANNELS 3 Xrotation Yrotation Zrotation
			JOINT LeftLeg
			{
				OFFSET 4.081073 -39.591068 13.024000
				CHANNELS 3 Xrotation Yrotation Zrotation
				JOINT LeftFoot
				{
					OFFSET -4.081074 -37.707932 -15.979700
					CHANNELS 3 Xrotation Yrotation Zrotation
					JOINT LeftToeBase
					{
						OFFSET 5.346399 -15.068900 20.645000
						CHANNELS 3 Xrotation Yrotation Zrotation
						JOINT LeftToe_End
						{
							OFFSET 2.754700 0.931300 11.300900
							CHANNELS 3 Xrotation Yrotation Zrotation
							End Site
							{
								OFFSET 0 0 0
							}
						}
					}
				}
			}
		}
	}
	JOINT RightUpLeg_virtual
	{
		OFFSET 0.000000 0.000000 0.000000
		CHANNELS 3 Xrotation Yrotation Zrotation
		JOINT RightUpLeg
		{
			OFFSET -15.569500 -6.655098 0.678600
			CHANNELS 3 Xrotation Yrotation Zrotation
			JOINT RightLeg
			{
				OFFSET -4.081825 -39.591045 13.023800
				CHANNELS 3 Xrotation Yrotation Zrotation
				JOINT RightFoot
				{
					OFFSET 4.081824 -37.707954 -15.979600
					CHANNELS 3 Xrotation Yrotation Zrotation
					JOINT RightToeBase
					{
						OFFSET -5.346400 -15.068900 20.645000
						CHANNELS 3 Xrotation Yrotation Zrotation
						JOINT RightToe_End
						{
							OFFSET -2.754700 0.931300 11.300900
							CHANNELS 3 Xrotation Yrotation Zrotation
							End Site
							{
								OFFSET 0 0 0
							}
						}
					}
				}
			}
		}
	}
	JOINT Spine_virtual
	{
		OFFSET 0.000000 0.000000 0.000000
		CHANNELS 3 Xrotation Yrotation Zrotation
		JOINT Spine
		{
			OFFSET -0.279200 12.230698 -2.892100
			CHANNELS 3 Xrotation Yrotation Zrotation
			JOINT Spine1
			{
				OFFSET -0.232667 10.192268 -1.242267
				CHANNELS 3 Xrotation Yrotation Zrotation
				JOINT Spine1_split
				{
					OFFSET -0.232667 10.192268 -1.242267
					CHANNELS 3 Xrotation Yrotation Zrotation
					JOINT Spine2
					{
						OFFSET -0.232667 10.192268 -1.242267
						CHANNELS 3 Xrotation Yrotation Zrotation
						JOINT Neck_virtual
						{
							OFFSET 0.000000 0.000000 0.000000
							CHANNELS 3 Xrotation Yrotation Zrotation
							JOINT Neck
							{
								OFFSET -0.418800 17.814194 8.416900
								CHANNELS 3 Xrotation Yrotation Zrotation
								JOINT Head
								{
									OFFSET 0.000000 7.031097 3.806800
									CHANNELS 3 Xrotation Yrotation Zrotation
									JOINT HeadTop_End
									{
										OFFSET 0.000000 24.646606 12.978600
										CHANNELS 3 Xrotation Yrotation Zrotation
										End Site
										{
											OFFSET 0 0 0
										}
									}
								}
							}
						}
						JOINT LeftShoulder_virtual
						{
							OFFSET 0.000000 0.000000 0.000000
							CHANNELS 3 Xrotation Yrotation Zrotation
							JOINT LeftShoulder
							{
								OFFSET 8.476499 7.247704 -3.868750
								CHANNELS 3 Xrotation Yrotation Zrotation
								JOINT LeftShoulder_split
								{
									OFFSET 8.476499 7.247704 -3.868750
									CHANNELS 3 Xrotation Yrotation Zrotation
									JOINT LeftArm
									{
										OFFSET 9.308998 -2.777710 0.208600
										CHANNELS 3 Xrotation Yrotation Zrotation
										JOINT LeftForeArm
										{
											OFFSET 29.972298 0.000000 0.000000
											CHANNELS 3 Xrotation Yrotation Zrotation
											JOINT LeftHand
											{
												OFFSET 26.026505 0.000000 0.000000
												CHANNELS 3 Xrotation Yrotation Zrotation
												End Site
												{
													OFFSET 0 0 0
												}
											}
										}
									}
								}
							}
						}
						JOINT RightShoulder_virtual
						{
							OFFSET 0.000000 0.000000 0.000000
							CHANNELS 3 Xrotation Yrotation Zrotation
							JOINT RightShoulder
							{
								OFFSET -7.570500 7.247704 -3.868750
								CHANNELS 3 Xrotation Yrotation Zrotation
								JOINT RightShoulder_split
								{
									OFFSET -7.570500 7.247704 -3.868750
									CHANNELS 3 Xrotation Yrotation Zrotation
									JOINT RightArm
									{
										OFFSET -9.308998 -2.777710 0.208500
										CHANNELS 3 Xrotation Yrotation Zrotation
										JOINT RightForeArm
										{
											OFFSET -29.972300 0.000000 0.000000
											CHANNELS 3 Xrotation Yrotation Zrotation
											JOINT RightHand
											{
												OFFSET -26.026505 0.000000 0.000000
												CHANNELS 3 Xrotation Yrotation Zrotation
												End Site
												{
													OFFSET 0 0 0
												}
											}
										}
									}
								}
							}
						}
					}
				}
			}
		}
	}
}
MOTION
Frames: 5
Frame Time: 0.03333333
2.253221 94.251114 2.848671 0.000000 0.000000 0.000000 -5.467351 -5.516214 8.341150 -29.450348 0.624393 1.703371 21.367702 11.601931 6.910509 26.488493 4.802740 -9.828647 -6.881477 1.675922 -0.773861 0.000000 0.000000 0.000000 -5.844823 -3.423321 8.009298 0.080589 -7.051056 11.302921 10.606065 -11.731456 -1.381394 -9.253645 -13.906590 -16.337712 1.539174 0.723903 -2.008227 0.000000 0.000000 0.000000 -7.143689 -10.530408 7.341139 1.739924 1.612857 -2.428253 2.284041 3.257412 -4.553475 0.801457 -1.989415 0.099906 0.000000 0.000000 0.000000 0.448831 3.143084 -4.517509 2.792064 -1.105763 0.744727 10.411135 10.592210 7.869784 0.000000 0.000000 0.000000 1.117169 2.966642 -4.715630 -0.181733 3.264604 -1.101515 -4.120178 0.627956 -1.180458 -15.340948 6.063539 -21.333377 0.142944 -18.116730 -1.244715 0.000000 0.000000 0.000000 0.804983 3.204396 -4.345981 1.179161 -2.474182 5.435568 -3.604966 -0.199206 -1.065597 -47.922871 33.092847 14.911913 -0.305914 12.873113 0.280872 0.000000 0.000000 0.000000 
1.296638 93.877304 4.471359 0.000000 0.000000 0.000000 -6.436930 -7.187511 8.359376 -30.877202 2.976129 -0.513272 20.644713 12.913379 7.007543 26.073147 6.543829 -8.522865 -7.039156 1.353097 -0.162676 0.000000 0.000000 0.000000 -5.912690 -6.034082 7.999882 -0.118972 -8.001876 11.159878 13.840110 -11.861581 -0.395880 -6.542833 -14.060966 -17.249631 -0.857035 0.537510 -1.164838 0.000000 0.000000 0.000000 -7.594163 -11.958691 7.418493 1.931908 1.819300 -2.821483 2.316159 3.603235 -4.524479 0.838739 -1.451438 0.024798 0.000000 0.000000 0.000000 0.596181 3.519621 -4.495496 2.964667 -1.180368 0.963980 10.045105 10.475205 7.875323 0.000000 0.000000 0.000000 1.179302 3.368807 -4.626244 -0.144047 3.404517 0.159120 -4.780683 0.507927 -0.366404 -17.732978 6.650394 -19.784449 -0.303574 -17.860381 -1.194702 0.000000 0.000000 0.000000 0.877434 3.527311 -4.326489 0.997329 -2.663527 5.129752 -3.761886 0.516947 -1.394636 -48.679516 35.384697 14.959873 -0.041596 14.646687 -0.186071 0.000000 0.000000 0.000000 
0.190865 93.258347 6.434101 0.000000 0.000000 0.000000 -6.997553 -11.218237 8.292241 -31.289780 5.845539 -4.080878 20.348669 14.485639 6.803003 26.056055 8.972621 -7.347690 -6.960778 0.850809 1.071737 0.000000 0.000000 0.000000 -5.998280 -11.164296 8.120541 -0.452855 -8.068269 9.919077 19.244832 -10.771704 0.841338 -3.696671 -12.685459 -16.502184 -6.132285 0.218048 -0.109713 0.000000 0.000000 0.000000 -8.090838 -14.764123 7.452978 1.862567 2.589387 -3.254801 2.373894 4.427127 -4.409617 0.753859 -1.219303 0.057739 0.000000 0.000000 0.000000 0.777625 4.382856 -4.373591 2.908303 -1.250063 1.056446 9.865290 10.120597 7.685370 0.000000 0.000000 0.000000 1.213537 4.303331 -4.400127 -0.231157 3.486326 2.041973 -4.955519 0.752434 -0.264442 -19.519682 7.820047 -16.150032 -0.534232 -17.853406 -0.970476 0.000000 0.000000 0.000000 1.011586 4.322676 -4.222832 0.983312 -3.157139 4.585527 -3.457294 0.593146 -1.264709 -49.536388 39.591912 14.396519 0.265266 16.629646 -0.633238 0.000000 0.000000 0.000000 
-1.133547 92.450249 8.229679 0.000000 0.000000 0.000000 -7.029775 -16.725074 8.153568 -30.890074 8.303992 -8.191303 21.018270 15.674608 6.335564 27.038675 11.239588 -7.079865 -8.165559 0.248918 2.957181 0.000000 0.000000 0.000000 -5.734076 -17.170646 8.282249 -0.088030 -7.191223 8.442837 23.869163 -9.019198 1.435121 -3.514873 -9.643320 -15.798113 -10.947643 -0.119392 0.884531 0.000000 0.000000 0.000000 -8.417870 -18.228052 7.288724 1.633491 3.628381 -3.610727 2.439150 5.517414 -4.176062 0.517259 -1.559919 0.217742 0.000000 0.000000 0.000000 0.920630 5.510349 -4.099196 2.641622 -1.186826 1.031045 9.873575 9.714148 7.269989 0.000000 0.000000 0.000000 1.209616 5.518953 -4.049921 -0.397696 3.537727 4.129015 -4.556900 1.272090 -0.736368 -20.469717 9.502753 -11.330982 -0.654444 -17.241163 -0.653989 0.000000 0.000000 0.000000 1.185915 5.424092 -4.013680 1.088831 -3.892894 3.876259 -3.010357 0.116143 -0.731281 -50.089073 44.694682 13.049377 0.545438 18.118363 -1.019705 0.000000 0.000000 0.000000 
-2.589049 91.627243 9.745358 0.000000 0.000000 0.000000 -6.527430 -22.908472 7.932228 -30.089073 10.114656 -12.342990 22.345696 16.597358 5.836620 28.274632 13.348879 -6.731833 -11.200514 -0.438902 4.890529 0.000000 0.000000 0.000000 -4.983392 -22.900190 8.322106 1.667683 -6.061097 7.825806 25.943183 -7.802855 1.025405 -6.347654 -5.796723 -16.001726 -13.288782 -0.224317 1.561111 0.000000 0.000000 0.000000 -8.024921 -22.105950 6.912907 1.190872 4.612154 -3.809374 2.444538 6.629332 -3.823837 0.328517 -1.698446 0.248631 0.000000 0.000000 0.000000 1.011224 6.644204 -3.695800 2.382894 -0.984042 0.964845 10.055594 9.529331 6.650765 0.000000 0.000000 0.000000 1.126007 6.743393 -3.620772 -0.602893 3.612326 5.950074 -4.062142 1.842347 -1.013617 -20.834794 11.412480 -6.200091 -0.784846 -15.951920 -0.317251 0.000000 0.000000 0.000000 1.307437 6.569103 -3.697727 1.280056 -4.694712 3.187961 -2.660513 -0.329505 -0.139335 -50.474412 49.665246 11.231885 0.717152 18.735933 -1.294440 0.000000 0.000000 0.000000 
